<svg xmlns="http://www.w3.org/2000/svg" viewBox="0 0 128 128" stroke-linecap="round" stroke-linejoin="round">
  <path fill="none" stroke="#171717" stroke-width="24" stroke-linecap="round" stroke-linejoin="round" d="M25 44c0-25 34-28 39 2 5-30 39-27 39-2 0 28-34 36-64 62M103 44c0 28-34 36-64 62M22 81h84" />
  <path fill="none" stroke="#A96A48" stroke-width="14" stroke-linecap="round" stroke-linejoin="round" d="M25 44c0-25 34-28 39 2 5-30 39-27 39-2 0 28-34 36-64 62M103 44c0 28-34 36-64 62M22 81h84" />
</svg>
